<svg viewBox="0 0 24 24" xmlns="http://www.w3.org/2000/svg" xmlns:xlink="http://www.w3.org/1999/xlink" overflow="hidden"><defs><linearGradient x1="12" y1="3" x2="3" y2="13" gradientUnits="userSpaceOnUse" id="g"><stop offset="0" stop-color="#FF4B14"/><stop offset="0.33" stop-color="#D600BA"/><stop offset="0.667" stop-color="#78008A"/><stop offset="1" stop-color="#6842FF"/></linearGradient></defs><path d="M12 3C12 3 12.5 3 13 3.5 13.5 4 14 5 14 6L14 6.5C16.2 7.4 18 9.5 18 12L18 16 20 18 4 18 6 16 6 12C6 9.5 7.8 7.4 10 6.5L10 6C10 5 10.5 4 11 3.5 11.5 3 12 3 12 3Z" stroke="url(#g)" stroke-width="1.8" stroke-linecap="round" stroke-linejoin="round" fill="none"/><path d="M9.5 18C9.5 19.38 10.62 20.5 12 20.5 13.38 20.5 14.5 19.38 14.5 18" stroke="url(#g)" stroke-width="1.8" stroke-linecap="round" fill="none"/></svg>